<svg width="25" height="23" viewBox="0 0 25 23" fill="none" xmlns="http://www.w3.org/2000/svg">
<path d="M12.5 0.5625C5.5918 0.5625 1.29777e-10 6.15313 1.29777e-10 13.0625V15.4062C-3.73915e-06 15.6964 0.0807978 15.9809 0.23335 16.2277C0.385903 16.4746 0.604179 16.674 0.863721 16.8038L1.56602 17.1549C1.66421 20.089 4.07329 22.4375 7.03125 22.4375H8.20312C8.85034 22.4375 9.375 21.9128 9.375 21.2656V12.6719C9.375 12.0247 8.85034 11.5 8.20312 11.5H7.03125C5.50088 11.5 4.11763 12.1289 3.125 13.1419V13.0625C3.125 7.89312 7.33062 3.6875 12.5 3.6875C17.6694 3.6875 21.875 7.89312 21.875 13.0625V13.1419C20.8824 12.1289 19.4991 11.5 17.9688 11.5H16.7969C16.1497 11.5 15.625 12.0247 15.625 12.6719V21.2656C15.625 21.9128 16.1497 22.4375 16.7969 22.4375H17.9688C20.9267 22.4375 23.3358 20.089 23.434 17.1549L24.1362 16.8038C24.3958 16.674 24.6141 16.4746 24.7666 16.2277C24.9192 15.9809 25 15.6964 25 15.4062V13.0625C25 6.15435 19.4094 0.5625 12.5 0.5625Z" fill="#F22835"/>
</svg>
