<svg width="14" height="15" viewBox="0 0 14 15" fill="none" xmlns="http://www.w3.org/2000/svg">
<path d="M7 0.476318C3.13306 0.476318 0 3.60938 0 7.47632C0 11.3433 3.13306 14.4763 7 14.4763C10.8669 14.4763 14 11.3433 14 7.47632C14 3.60938 10.8669 0.476318 7 0.476318ZM8.61169 10.3582L6.12218 8.5489C6.03468 8.48398 5.98387 8.38237 5.98387 8.27511V3.52471C5.98387 3.33842 6.13629 3.186 6.32258 3.186H7.67742C7.86371 3.186 8.01613 3.33842 8.01613 3.52471V7.4114L9.80847 8.71543C9.96089 8.82551 9.99194 9.03721 9.88186 9.18962L9.08589 10.2848C8.97581 10.4344 8.76411 10.4683 8.61169 10.3582Z" fill="#727171"/>
</svg>
