<?xml version="1.0" encoding="UTF-8" standalone="no" ?>
<!DOCTYPE svg PUBLIC "-//W3C//DTD SVG 1.1//EN" "http://www.w3.org/Graphics/SVG/1.1/DTD/svg11.dtd">
<svg xmlns="http://www.w3.org/2000/svg" xmlns:xlink="http://www.w3.org/1999/xlink" version="1.1" width="500" height="500" viewBox="0 0 500 500" xml:space="preserve">
<desc>Created with Fabric.js 3.6.3</desc>
<defs>
</defs>
<rect x="0" y="0" width="100%" height="100%" fill="#ffffff"></rect>
<g transform="matrix(3.310800823812746 0 0 3.3108008238127455 249.87717244405954 250.37717244405954)"  >
<circle style="stroke: none; stroke-width: 0; stroke-dasharray: none; stroke-linecap: butt; stroke-dashoffset: 0; stroke-linejoin: miter; stroke-miterlimit: 4; fill: rgb(0,0,0); fill-rule: evenodd; opacity: 1;"  cx="0" cy="0" r="47.0059" />
</g>
<g transform="matrix(1 0 0 1 249.37713410198054 156.96892124082316)" style=""  ><path fill="#F2F2F2" opacity="1" d="M-37.27-13.24L-39.74-13.24C-39.97-13.24-40.16-13.05-40.16-12.82L-40.16-3.81C-40.16-3.58-39.97-3.39-39.74-3.39L-39.70-3.39C-39.47-3.39-39.28-3.58-39.28-3.81L-39.28-6.98C-39.28-7.10-39.24-7.13-39.12-7.13L-37.27-7.13C-35.40-7.13-33.87-8.35-33.87-10.23C-33.87-12.11-35.40-13.24-37.27-13.24ZM-37.27-8.00L-39.14-8.00C-39.26-8.00-39.28-8.04-39.28-8.17L-39.28-12.23C-39.28-12.34-39.24-12.38-39.12-12.38L-37.27-12.38C-35.87-12.38-34.74-11.64-34.74-10.23C-34.74-8.83-35.87-8.00-37.27-8.00Z"/><path fill="#F2F2F2" opacity="1" d="M-29.96-12.99C-30.02-13.16-30.19-13.24-30.36-13.24C-30.52-13.24-30.70-13.16-30.77-12.99L-34.55-3.98C-34.63-3.78-34.53-3.52-34.32-3.44L-34.29-3.43C-34.07-3.33-33.83-3.44-33.74-3.64C-33.74-3.64-32.78-5.92-32.71-6.09C-32.64-6.25-32.55-6.30-32.39-6.30C-32.25-6.30-29.24-6.30-28.35-6.30C-28.19-6.30-28.08-6.25-28.03-6.13C-27.97-6.01-26.99-3.64-26.99-3.64C-26.89-3.44-26.65-3.33-26.43-3.43L-26.41-3.44C-26.19-3.52-26.08-3.78-26.18-3.98L-29.96-12.99ZM-32.18-7.36C-32.14-7.45-30.91-10.56-30.50-11.46C-30.39-11.69-30.33-11.69-30.24-11.46C-29.86-10.56-28.62-7.53-28.55-7.40C-28.48-7.23-28.51-7.18-28.70-7.18C-28.88-7.18-31.27-7.18-32.02-7.18C-32.17-7.18-32.22-7.23-32.18-7.36Z"/><path fill="#F2F2F2" opacity="1" d="M-20.83-13.40C-23.65-13.40-25.93-11.14-25.93-8.31C-25.93-5.51-23.65-3.21-20.83-3.21C-19.56-3.21-18.43-3.68-17.56-4.44C-17.52-4.48-17.43-4.59-17.43-4.74C-17.43-4.80-17.43-5.28-17.43-5.60C-17.43-5.75-17.52-5.76-17.60-5.65C-18.33-4.67-19.49-4.02-20.83-4.02C-23.17-4.02-25.07-5.98-25.07-8.31C-25.07-10.65-23.17-12.59-20.83-12.59C-19.49-12.59-18.33-11.96-17.60-10.97C-17.52-10.87-17.43-10.88-17.43-11.04C-17.43-11.37-17.43-11.82-17.43-11.91C-17.43-12.04-17.52-12.16-17.56-12.19C-18.40-12.90-19.56-13.40-20.83-13.40Z"/><path fill="#F2F2F2" opacity="1" d="M-15.54-13.24L-15.57-13.24C-15.79-13.24-15.98-13.05-15.98-12.82L-15.98-3.81C-15.98-3.58-15.79-3.39-15.57-3.39L-15.54-3.39C-15.31-3.39-15.12-3.58-15.12-3.81L-15.12-12.82C-15.12-13.05-15.31-13.24-15.54-13.24Z"/><path fill="#F2F2F2" opacity="1" d="M-8.36-13.24L-12.95-13.24C-13.18-13.24-13.37-13.05-13.37-12.82L-13.37-3.81C-13.37-3.58-13.18-3.39-12.95-3.39L-12.92-3.39C-12.69-3.39-12.50-3.58-12.50-3.81L-12.50-7.86C-12.50-7.96-12.46-8.00-12.33-8.00L-8.87-8.00C-8.64-8.00-8.45-8.19-8.45-8.42L-8.45-8.45C-8.45-8.68-8.64-8.87-8.87-8.87L-12.35-8.87C-12.46-8.87-12.50-8.91-12.50-9.04L-12.50-12.23C-12.50-12.34-12.46-12.38-12.33-12.38L-8.36-12.38C-8.13-12.38-7.94-12.57-7.94-12.80L-7.94-12.82C-7.94-13.05-8.13-13.24-8.36-13.24Z"/><path fill="#F2F2F2" opacity="1" d="M-6.28-13.24L-6.30-13.24C-6.53-13.24-6.72-13.05-6.72-12.82L-6.72-3.81C-6.72-3.58-6.53-3.39-6.30-3.39L-6.28-3.39C-6.05-3.39-5.86-3.58-5.86-3.81L-5.86-12.82C-5.86-13.05-6.05-13.24-6.28-13.24Z"/><path fill="#F2F2F2" opacity="1" d="M0.80-13.40C-2.03-13.40-4.31-11.14-4.31-8.31C-4.31-5.51-2.03-3.21 0.80-3.21C2.07-3.21 3.20-3.68 4.06-4.44C4.10-4.48 4.20-4.59 4.20-4.74C4.20-4.80 4.20-5.28 4.20-5.60C4.20-5.75 4.10-5.76 4.02-5.65C3.29-4.67 2.13-4.02 0.80-4.02C-1.54-4.02-3.44-5.98-3.44-8.31C-3.44-10.65-1.54-12.59 0.80-12.59C2.13-12.59 3.29-11.96 4.02-10.97C4.10-10.87 4.20-10.88 4.20-11.04C4.20-11.37 4.20-11.82 4.20-11.91C4.20-12.04 4.10-12.16 4.06-12.19C3.23-12.90 2.07-13.40 0.80-13.40Z"/><path fill="#F2F2F2" opacity="1" d=""/><path fill="#F2F2F2" opacity="1" d="M13.95-9.10C12.70-9.04 12.27-10.04 12.27-10.85C12.27-11.81 12.95-12.59 13.97-12.59C14.63-12.59 15.01-12.24 15.47-11.69C15.81-11.28 16.51-11.66 16.21-12.19C15.77-12.97 14.96-13.40 13.97-13.40C12.49-13.40 11.46-12.26 11.46-10.85C11.46-9.29 12.61-8.22 13.95-8.27C15.17-8.34 16.06-7.37 16.06-6.21C16.06-4.93 15.25-4.02 13.97-4.02C13.12-4.02 12.61-4.51 12.19-5.11C11.74-5.74 10.98-5.22 11.35-4.60C11.88-3.74 12.82-3.21 13.97-3.21C15.70-3.21 16.89-4.48 16.89-6.21C16.89-8.23 15.12-9.14 13.95-9.10Z"/><path fill="#F2F2F2" opacity="1" d="M23.61-13.24L18.32-13.24C18.09-13.24 17.90-13.05 17.90-12.82L17.90-12.80C17.90-12.57 18.09-12.38 18.32-12.38L20.38-12.38C20.51-12.38 20.53-12.34 20.53-12.20L20.53-3.81C20.53-3.58 20.72-3.39 20.95-3.39L20.98-3.39C21.21-3.39 21.40-3.58 21.40-3.81L21.40-12.23C21.40-12.34 21.44-12.38 21.57-12.38L23.61-12.38C23.84-12.38 24.03-12.57 24.03-12.80L24.03-12.82C24.03-13.05 23.84-13.24 23.61-13.24Z"/><path fill="#F2F2F2" opacity="1" d="M28.66-12.99C28.59-13.16 28.43-13.24 28.26-13.24C28.09-13.24 27.92-13.16 27.85-12.99L24.07-3.98C23.99-3.78 24.08-3.52 24.30-3.44L24.33-3.43C24.54-3.33 24.79-3.44 24.88-3.64C24.88-3.64 25.84-5.92 25.91-6.09C25.97-6.25 26.07-6.30 26.23-6.30C26.37-6.30 29.38-6.30 30.27-6.30C30.43-6.30 30.54-6.25 30.59-6.13C30.64-6.01 31.63-3.64 31.63-3.64C31.72-3.44 31.97-3.33 32.18-3.43L32.21-3.44C32.43-3.52 32.53-3.78 32.44-3.98L28.66-12.99ZM26.43-7.36C26.47-7.45 27.70-10.56 28.12-11.46C28.23-11.69 28.28-11.69 28.38-11.46C28.75-10.56 30.00-7.53 30.06-7.40C30.13-7.23 30.10-7.18 29.92-7.18C29.74-7.18 27.35-7.18 26.59-7.18C26.45-7.18 26.39-7.23 26.43-7.36Z"/><path fill="#F2F2F2" opacity="1" d="M39.77-4.18C39.43-4.18 39.91-5.43 39.91-6.15C39.91-7.10 39.49-7.71 38.76-8.13C38.57-8.23 38.58-8.30 38.73-8.41C39.41-8.88 39.87-9.56 39.87-10.47C39.87-12.24 38.27-13.24 36.45-13.24L34.11-13.24C33.88-13.24 33.70-13.05 33.70-12.70C33.70-12.70 33.70-3.79 33.70-3.68C33.70-3.58 33.88-3.39 34.11-3.39L34.15-3.39C34.38-3.39 34.57-3.55 34.57-3.68C34.57-3.81 34.57-7.54 34.57-7.54C34.57-7.67 34.61-7.69 34.74-7.69L36.84-7.69C38.41-7.69 39.01-7.25 39.01-6.15C39.01-5.22 38.70-4.16 39.08-3.66C39.23-3.45 39.53-3.31 39.77-3.31C40.59-3.31 40.51-4.18 39.77-4.18ZM36.45-8.57L34.72-8.57C34.60-8.57 34.57-8.61 34.57-8.73L34.57-12.23C34.57-12.34 34.61-12.38 34.74-12.38L36.45-12.38C37.79-12.38 39.00-11.77 39.00-10.47C39.00-9.21 37.83-8.57 36.45-8.57Z"/><path fill="#F2F2F2" opacity="1" d="M-78.29 2.01L-78.32 2.01C-78.55 2.01-78.74 2.20-78.74 2.43L-78.74 11.45C-78.74 11.68-78.55 11.87-78.32 11.87L-78.29 11.87C-78.06 11.87-77.87 11.68-77.87 11.45L-77.87 2.43C-77.87 2.20-78.06 2.01-78.29 2.01Z"/><path fill="#F2F2F2" opacity="1" d="M-69.46 2.01L-69.50 2.01C-69.73 2.01-69.92 2.20-69.92 2.43C-69.92 2.43-69.92 9.13-69.92 9.48C-69.92 9.83-69.99 9.95-70.22 9.60C-70.46 9.26-75.32 2.19-75.32 2.19C-75.44 2.01-75.66 1.97-75.86 2.05C-76.01 2.11-76.12 2.31-76.12 2.45L-76.12 11.45C-76.12 11.68-75.93 11.87-75.70 11.87L-75.66 11.87C-75.43 11.87-75.24 11.68-75.24 11.45C-75.24 11.45-75.24 4.92-75.24 4.50C-75.24 4.08-75.12 4.02-74.90 4.34C-74.70 4.63-69.86 11.68-69.86 11.68C-69.73 11.85-69.52 11.91-69.33 11.83C-69.17 11.76-69.05 11.61-69.05 11.44L-69.05 2.43C-69.05 2.20-69.23 2.01-69.46 2.01Z"/><path fill="#F2F2F2" opacity="1" d="M-62.12 2.01L-67.41 2.01C-67.64 2.01-67.83 2.20-67.83 2.43L-67.83 2.46C-67.83 2.69-67.64 2.88-67.41 2.88L-65.35 2.88C-65.23 2.88-65.20 2.92-65.20 3.05L-65.20 11.45C-65.20 11.68-65.01 11.87-64.78 11.87L-64.75 11.87C-64.52 11.87-64.33 11.68-64.33 11.45L-64.33 3.03C-64.33 2.92-64.29 2.88-64.16 2.88L-62.12 2.88C-61.89 2.88-61.70 2.69-61.70 2.46L-61.70 2.43C-61.70 2.20-61.89 2.01-62.12 2.01Z"/><path fill="#F2F2F2" opacity="1" d="M-55.22 10.99L-59.47 10.99C-59.60 10.99-59.62 10.95-59.62 10.83L-59.62 7.40C-59.62 7.28-59.58 7.25-59.45 7.25L-55.99 7.25C-55.76 7.25-55.57 7.06-55.57 6.83L-55.57 6.81C-55.57 6.58-55.76 6.39-55.99 6.39L-59.47 6.39C-59.60 6.39-59.62 6.35-59.62 6.21L-59.62 3.03C-59.62 2.92-59.58 2.88-59.45 2.88L-55.48 2.88C-55.25 2.88-55.06 2.69-55.06 2.46L-55.06 2.43C-55.06 2.20-55.25 2.01-55.48 2.01L-60.08 2.01C-60.31 2.01-60.49 2.20-60.49 2.43L-60.49 11.45C-60.49 11.68-60.31 11.87-60.08 11.87L-55.22 11.87C-54.99 11.87-54.80 11.68-54.80 11.45L-54.80 11.41C-54.80 11.18-54.99 10.99-55.22 10.99Z"/><path fill="#F2F2F2" opacity="1" d="M-47.28 11.07C-47.62 11.07-47.15 9.83-47.15 9.10C-47.15 8.16-47.57 7.55-48.30 7.13C-48.49 7.02-48.47 6.95-48.32 6.85C-47.65 6.37-47.19 5.70-47.19 4.78C-47.19 3.01-48.78 2.01-50.60 2.01L-52.94 2.01C-53.17 2.01-53.36 2.20-53.36 2.55C-53.36 2.55-53.36 11.46-53.36 11.57C-53.36 11.68-53.17 11.87-52.94 11.87L-52.90 11.87C-52.67 11.87-52.48 11.71-52.48 11.57C-52.48 11.45-52.48 7.71-52.48 7.71C-52.48 7.59-52.44 7.56-52.32 7.56L-50.21 7.56C-48.65 7.56-48.04 8.01-48.04 9.10C-48.04 10.03-48.35 11.10-47.97 11.60C-47.82 11.80-47.53 11.95-47.28 11.95C-46.46 11.95-46.54 11.07-47.28 11.07ZM-50.60 6.68L-52.33 6.68C-52.45 6.68-52.48 6.64-52.48 6.52L-52.48 3.03C-52.48 2.92-52.44 2.88-52.32 2.88L-50.60 2.88C-49.27 2.88-48.05 3.48-48.05 4.78C-48.05 6.05-49.23 6.68-50.60 6.68Z"/><path fill="#F2F2F2" opacity="1" d="M-38.48 2.01L-38.52 2.01C-38.75 2.01-38.94 2.20-38.94 2.43C-38.94 2.43-38.94 9.13-38.94 9.48C-38.94 9.83-39.01 9.95-39.24 9.60C-39.48 9.26-44.34 2.19-44.34 2.19C-44.46 2.01-44.68 1.97-44.88 2.05C-45.03 2.11-45.14 2.31-45.14 2.45L-45.14 11.45C-45.14 11.68-44.95 11.87-44.72 11.87L-44.68 11.87C-44.45 11.87-44.26 11.68-44.26 11.45C-44.26 11.45-44.26 4.92-44.26 4.50C-44.26 4.08-44.14 4.02-43.92 4.34C-43.72 4.63-38.87 11.68-38.87 11.68C-38.75 11.85-38.54 11.91-38.35 11.83C-38.18 11.76-38.06 11.61-38.06 11.44L-38.06 2.43C-38.06 2.20-38.25 2.01-38.48 2.01Z"/><path fill="#F2F2F2" opacity="1" d="M-32.22 2.27C-32.29 2.09-32.45 2.01-32.62 2.01C-32.78 2.01-32.96 2.09-33.03 2.27L-36.81 11.27C-36.89 11.48-36.79 11.73-36.58 11.81L-36.55 11.83C-36.34 11.92-36.09 11.81-36.00 11.61C-36.00 11.61-35.04 9.33-34.97 9.17C-34.90 9.01-34.81 8.95-34.65 8.95C-34.51 8.95-31.50 8.95-30.61 8.95C-30.45 8.95-30.34 9.01-30.29 9.13C-30.23 9.25-29.25 11.61-29.25 11.61C-29.15 11.81-28.91 11.92-28.69 11.83L-28.67 11.81C-28.45 11.73-28.34 11.48-28.44 11.27L-32.22 2.27ZM-34.45 7.90C-34.40 7.80-33.18 4.70-32.76 3.80C-32.65 3.57-32.60 3.57-32.50 3.80C-32.12 4.70-30.88 7.72-30.81 7.86C-30.75 8.02-30.77 8.07-30.96 8.07C-31.14 8.07-33.53 8.07-34.28 8.07C-34.43 8.07-34.49 8.02-34.45 7.90Z"/><path fill="#F2F2F2" opacity="1" d="M-22.69 2.01L-27.98 2.01C-28.21 2.01-28.40 2.20-28.40 2.43L-28.40 2.46C-28.40 2.69-28.21 2.88-27.98 2.88L-25.91 2.88C-25.79 2.88-25.76 2.92-25.76 3.05L-25.76 11.45C-25.76 11.68-25.58 11.87-25.35 11.87L-25.32 11.87C-25.09 11.87-24.90 11.68-24.90 11.45L-24.90 3.03C-24.90 2.92-24.86 2.88-24.73 2.88L-22.69 2.88C-22.46 2.88-22.27 2.69-22.27 2.46L-22.27 2.43C-22.27 2.20-22.46 2.01-22.69 2.01Z"/><path fill="#F2F2F2" opacity="1" d="M-20.61 2.01L-20.63 2.01C-20.86 2.01-21.05 2.20-21.05 2.43L-21.05 11.45C-21.05 11.68-20.86 11.87-20.63 11.87L-20.61 11.87C-20.38 11.87-20.19 11.68-20.19 11.45L-20.19 2.43C-20.19 2.20-20.38 2.01-20.61 2.01Z"/><path fill="#F2F2F2" opacity="1" d="M-13.53 1.85C-16.36 1.85-18.64 4.12-18.64 6.94C-18.64 9.75-16.36 12.04-13.53 12.04C-10.71 12.04-8.57 9.75-8.57 6.94C-8.57 4.12-10.71 1.85-13.53 1.85ZM-13.53 11.23C-15.87 11.23-17.77 9.28-17.77 6.94C-17.77 4.59-15.87 2.65-13.53 2.65C-11.20 2.65-9.43 4.59-9.43 6.94C-9.43 9.28-11.20 11.23-13.53 11.23Z"/><path fill="#F2F2F2" opacity="1" d="M-0.36 2.01L-0.40 2.01C-0.63 2.01-0.82 2.20-0.82 2.43C-0.82 2.43-0.82 9.13-0.82 9.48C-0.82 9.83-0.88 9.95-1.11 9.60C-1.36 9.26-6.22 2.19-6.22 2.19C-6.34 2.01-6.55 1.97-6.76 2.05C-6.91 2.11-7.01 2.31-7.01 2.45L-7.01 11.45C-7.01 11.68-6.82 11.87-6.59 11.87L-6.55 11.87C-6.32 11.87-6.14 11.68-6.14 11.45C-6.14 11.45-6.14 4.92-6.14 4.50C-6.14 4.08-6.01 4.02-5.80 4.34C-5.60 4.63-0.75 11.68-0.75 11.68C-0.63 11.85-0.41 11.91-0.22 11.83C-0.06 11.76 0.06 11.61 0.06 11.44L0.06 2.43C0.06 2.20-0.13 2.01-0.36 2.01Z"/><path fill="#F2F2F2" opacity="1" d="M5.91 2.27C5.84 2.09 5.68 2.01 5.50 2.01C5.34 2.01 5.16 2.09 5.10 2.27L1.32 11.27C1.24 11.48 1.33 11.73 1.55 11.81L1.57 11.83C1.79 11.92 2.03 11.81 2.13 11.61C2.13 11.61 3.08 9.33 3.15 9.17C3.22 9.01 3.31 8.95 3.48 8.95C3.61 8.95 6.62 8.95 7.51 8.95C7.67 8.95 7.78 9.01 7.84 9.13C7.89 9.25 8.88 11.61 8.88 11.61C8.97 11.81 9.21 11.92 9.43 11.83L9.46 11.81C9.67 11.73 9.78 11.48 9.69 11.27L5.91 2.27ZM3.68 7.90C3.72 7.80 4.95 4.70 5.37 3.80C5.47 3.57 5.53 3.57 5.62 3.80C6.00 4.70 7.24 7.72 7.31 7.86C7.38 8.02 7.35 8.07 7.16 8.07C6.99 8.07 4.60 8.07 3.84 8.07C3.69 8.07 3.64 8.02 3.68 7.90Z"/><path fill="#F2F2F2" opacity="1" d="M15.83 10.99L11.97 10.99C11.85 10.99 11.82 10.95 11.82 10.83L11.82 2.43C11.82 2.20 11.63 2.01 11.40 2.01L11.36 2.01C11.13 2.01 10.94 2.20 10.94 2.43L10.94 11.45C10.94 11.68 11.13 11.87 11.36 11.87L15.83 11.87C16.06 11.87 16.25 11.68 16.25 11.45L16.25 11.41C16.25 11.18 16.06 10.99 15.83 10.99Z"/><path fill="#F2F2F2" opacity="1" d=""/><path fill="#F2F2F2" opacity="1" d="M25.76 6.16C24.52 6.21 24.09 5.21 24.09 4.40C24.09 3.44 24.77 2.66 25.79 2.66C26.45 2.66 26.83 3.01 27.29 3.57C27.63 3.97 28.33 3.59 28.03 3.07C27.59 2.28 26.78 1.85 25.79 1.85C24.31 1.85 23.28 3.00 23.28 4.40C23.28 5.97 24.43 7.04 25.76 6.98C26.99 6.91 27.88 7.89 27.88 9.05C27.88 10.33 27.07 11.23 25.79 11.23C24.94 11.23 24.43 10.75 24.01 10.14C23.56 9.52 22.79 10.03 23.17 10.65C23.70 11.52 24.64 12.04 25.79 12.04C27.52 12.04 28.71 10.77 28.71 9.05C28.71 7.02 26.94 6.12 25.76 6.16Z"/><path fill="#F2F2F2" opacity="1" d="M35.53 10.99L31.27 10.99C31.15 10.99 31.12 10.95 31.12 10.83L31.12 7.40C31.12 7.28 31.16 7.25 31.30 7.25L34.76 7.25C34.99 7.25 35.17 7.06 35.17 6.83L35.17 6.81C35.17 6.58 34.99 6.39 34.76 6.39L31.27 6.39C31.15 6.39 31.12 6.35 31.12 6.21L31.12 3.03C31.12 2.92 31.16 2.88 31.30 2.88L35.27 2.88C35.50 2.88 35.69 2.69 35.69 2.46L35.69 2.43C35.69 2.20 35.50 2.01 35.27 2.01L30.67 2.01C30.44 2.01 30.26 2.20 30.26 2.43L30.26 11.45C30.26 11.68 30.44 11.87 30.67 11.87L35.53 11.87C35.75 11.87 35.94 11.68 35.94 11.45L35.94 11.41C35.94 11.18 35.75 10.99 35.53 10.99Z"/><path fill="#F2F2F2" opacity="1" d="M43.46 11.07C43.13 11.07 43.60 9.83 43.60 9.10C43.60 8.16 43.18 7.55 42.45 7.13C42.26 7.02 42.28 6.95 42.42 6.85C43.10 6.37 43.56 5.70 43.56 4.78C43.56 3.01 41.96 2.01 40.14 2.01L37.81 2.01C37.58 2.01 37.39 2.20 37.39 2.55C37.39 2.55 37.39 11.46 37.39 11.57C37.39 11.68 37.58 11.87 37.81 11.87L37.85 11.87C38.08 11.87 38.27 11.71 38.27 11.57C38.27 11.45 38.27 7.71 38.27 7.71C38.27 7.59 38.31 7.56 38.43 7.56L40.53 7.56C42.10 7.56 42.71 8.01 42.71 9.10C42.71 10.03 42.40 11.10 42.77 11.60C42.92 11.80 43.22 11.95 43.46 11.95C44.29 11.95 44.21 11.07 43.46 11.07ZM40.14 6.68L38.41 6.68C38.29 6.68 38.27 6.64 38.27 6.52L38.27 3.03C38.27 2.92 38.31 2.88 38.43 2.88L40.14 2.88C41.48 2.88 42.69 3.48 42.69 4.78C42.69 6.05 41.52 6.68 40.14 6.68Z"/><path fill="#F2F2F2" opacity="1" d="M52.45 2.05L52.43 2.04C52.21 1.96 51.97 2.07 51.89 2.28L50.25 6.67C50.25 6.67 49.30 9.47 49.19 9.78C48.92 10.49 48.92 10.33 48.73 9.83C48.61 9.49 47.61 6.67 47.61 6.67L45.97 2.28C45.89 2.07 45.65 1.96 45.43 2.04L45.41 2.05C45.19 2.13 45.08 2.38 45.16 2.59L48.51 11.60C48.58 11.77 48.76 11.87 48.93 11.87C49.11 11.87 49.28 11.77 49.35 11.60L52.70 2.59C52.78 2.38 52.67 2.13 52.45 2.05Z"/><path fill="#F2F2F2" opacity="1" d="M54.45 2.01L54.43 2.01C54.20 2.01 54.01 2.20 54.01 2.43L54.01 11.45C54.01 11.68 54.20 11.87 54.43 11.87L54.45 11.87C54.68 11.87 54.87 11.68 54.87 11.45L54.87 2.43C54.87 2.20 54.68 2.01 54.45 2.01Z"/><path fill="#F2F2F2" opacity="1" d="M61.53 1.85C58.70 1.85 56.42 4.12 56.42 6.94C56.42 9.75 58.70 12.04 61.53 12.04C62.80 12.04 63.93 11.57 64.79 10.82C64.83 10.77 64.93 10.67 64.93 10.52C64.93 10.45 64.93 9.98 64.93 9.65C64.93 9.51 64.83 9.49 64.75 9.60C64.02 10.59 62.86 11.23 61.53 11.23C59.19 11.23 57.29 9.28 57.29 6.94C57.29 4.61 59.19 2.66 61.53 2.66C62.86 2.66 64.02 3.30 64.75 4.28C64.83 4.39 64.93 4.38 64.93 4.21C64.93 3.89 64.93 3.43 64.93 3.35C64.93 3.21 64.83 3.09 64.79 3.07C63.96 2.35 62.80 1.85 61.53 1.85Z"/><path fill="#F2F2F2" opacity="1" d="M71.64 10.99L67.39 10.99C67.26 10.99 67.24 10.95 67.24 10.83L67.24 7.40C67.24 7.28 67.28 7.25 67.41 7.25L70.87 7.25C71.10 7.25 71.29 7.06 71.29 6.83L71.29 6.81C71.29 6.58 71.10 6.39 70.87 6.39L67.39 6.39C67.26 6.39 67.24 6.35 67.24 6.21L67.24 3.03C67.24 2.92 67.28 2.88 67.41 2.88L71.38 2.88C71.61 2.88 71.80 2.69 71.80 2.46L71.80 2.43C71.80 2.20 71.61 2.01 71.38 2.01L66.78 2.01C66.55 2.01 66.37 2.20 66.37 2.43L66.37 11.45C66.37 11.68 66.55 11.87 66.78 11.87L71.64 11.87C71.87 11.87 72.06 11.68 72.06 11.45L72.06 11.41C72.06 11.18 71.87 10.99 71.64 10.99Z"/><path fill="#F2F2F2" opacity="1" d="M76.00 6.16C74.76 6.21 74.32 5.21 74.32 4.40C74.32 3.44 75.00 2.66 76.03 2.66C76.69 2.66 77.06 3.01 77.52 3.57C77.86 3.97 78.56 3.59 78.27 3.07C77.82 2.28 77.01 1.85 76.03 1.85C74.54 1.85 73.51 3.00 73.51 4.40C73.51 5.97 74.66 7.04 76.00 6.98C77.23 6.91 78.12 7.89 78.12 9.05C78.12 10.33 77.31 11.23 76.03 11.23C75.17 11.23 74.66 10.75 74.24 10.14C73.80 9.52 73.03 10.03 73.41 10.65C73.93 11.52 74.88 12.04 76.03 12.04C77.75 12.04 78.94 10.77 78.94 9.05C78.94 7.02 77.17 6.12 76.00 6.16Z"/></g><g transform="matrix(1 0 0 1 249.37721008319744 345.389624547284)" style=""  ><path fill="#F2F2F2" opacity="1" d="M-37.25-4.39L-41.62-4.39C-41.75-4.39-41.78-4.43-41.78-4.56L-41.78-8.09C-41.78-8.21-41.73-8.24-41.60-8.24L-38.04-8.24C-37.80-8.24-37.61-8.44-37.61-8.67L-37.61-8.70C-37.61-8.94-37.80-9.13-38.04-9.13L-41.62-9.13C-41.75-9.13-41.78-9.17-41.78-9.31L-41.78-12.59C-41.78-12.70-41.73-12.74-41.60-12.74L-37.51-12.74C-37.27-12.74-37.08-12.94-37.08-13.18L-37.08-13.20C-37.08-13.44-37.27-13.63-37.51-13.63L-42.25-13.63C-42.49-13.63-42.67-13.44-42.67-13.20L-42.67-3.92C-42.67-3.68-42.49-3.49-42.25-3.49L-37.25-3.49C-37.01-3.49-36.81-3.68-36.81-3.92L-36.81-3.96C-36.81-4.20-37.01-4.39-37.25-4.39Z"/><path fill="#F2F2F2" opacity="1" d="M-30.49-9.23C-30.27-9.55-27.85-12.94-27.85-12.94C-27.72-13.13-27.77-13.41-27.96-13.54L-27.99-13.56C-28.18-13.69-28.45-13.65-28.59-13.45C-28.59-13.45-30.84-10.13-31.00-9.91C-31.31-9.45-31.25-9.45-31.57-9.91C-31.77-10.20-33.98-13.45-33.98-13.45C-34.12-13.65-34.38-13.69-34.58-13.56L-34.60-13.54C-34.80-13.41-34.85-13.13-34.72-12.94C-34.72-12.94-32.30-9.55-32.07-9.23C-31.74-8.74-31.77-8.78-32.05-8.37C-32.23-8.12-34.97-4.18-34.97-4.18C-35.10-3.99-35.05-3.72-34.85-3.58L-34.83-3.57C-34.63-3.43-34.37-3.49-34.23-3.68C-34.23-3.68-31.71-7.42-31.55-7.67C-31.27-8.06-31.30-8.06-31.02-7.66C-30.81-7.35-28.32-3.68-28.32-3.68C-28.20-3.49-27.92-3.43-27.72-3.57L-27.70-3.58C-27.50-3.72-27.46-3.99-27.58-4.18C-27.58-4.18-30.30-8.09-30.49-8.35C-30.78-8.78-30.84-8.74-30.49-9.23Z"/><path fill="#F2F2F2" opacity="1" d="M-20.93-13.80C-23.83-13.80-26.18-11.47-26.18-8.56C-26.18-5.67-23.83-3.31-20.93-3.31C-19.62-3.31-18.45-3.79-17.56-4.57C-17.52-4.61-17.42-4.72-17.42-4.88C-17.42-4.95-17.42-5.43-17.42-5.77C-17.42-5.92-17.52-5.93-17.60-5.82C-18.35-4.81-19.55-4.14-20.93-4.14C-23.33-4.14-25.29-6.16-25.29-8.56C-25.29-10.97-23.33-12.97-20.93-12.97C-19.55-12.97-18.35-12.31-17.60-11.30C-17.52-11.19-17.42-11.20-17.42-11.37C-17.42-11.70-17.42-12.17-17.42-12.26C-17.42-12.40-17.52-12.52-17.56-12.55C-18.42-13.29-19.62-13.80-20.93-13.80Z"/><path fill="#F2F2F2" opacity="1" d="M-9.68-4.39L-14.06-4.39C-14.18-4.39-14.21-4.43-14.21-4.56L-14.21-8.09C-14.21-8.21-14.17-8.24-14.03-8.24L-10.47-8.24C-10.24-8.24-10.04-8.44-10.04-8.67L-10.04-8.70C-10.04-8.94-10.24-9.13-10.47-9.13L-14.06-9.13C-14.18-9.13-14.21-9.17-14.21-9.31L-14.21-12.59C-14.21-12.70-14.17-12.74-14.03-12.74L-9.95-12.74C-9.71-12.74-9.51-12.94-9.51-13.18L-9.51-13.20C-9.51-13.44-9.71-13.63-9.95-13.63L-14.69-13.63C-14.92-13.63-15.10-13.44-15.10-13.20L-15.10-3.92C-15.10-3.68-14.92-3.49-14.69-3.49L-9.68-3.49C-9.45-3.49-9.25-3.68-9.25-3.92L-9.25-3.96C-9.25-4.20-9.45-4.39-9.68-4.39Z"/><path fill="#F2F2F2" opacity="1" d="M-1.90-4.39L-5.87-4.39C-6.00-4.39-6.03-4.43-6.03-4.56L-6.03-13.20C-6.03-13.44-6.22-13.63-6.46-13.63L-6.50-13.63C-6.73-13.63-6.93-13.44-6.93-13.20L-6.93-3.92C-6.93-3.68-6.73-3.49-6.50-3.49L-1.90-3.49C-1.66-3.49-1.47-3.68-1.47-3.92L-1.47-3.96C-1.47-4.20-1.66-4.39-1.90-4.39Z"/><path fill="#F2F2F2" opacity="1" d="M5.65-4.39L1.67-4.39C1.55-4.39 1.52-4.43 1.52-4.56L1.52-13.20C1.52-13.44 1.33-13.63 1.09-13.63L1.05-13.63C0.81-13.63 0.62-13.44 0.62-13.20L0.62-3.92C0.62-3.68 0.81-3.49 1.05-3.49L5.65-3.49C5.89-3.49 6.08-3.68 6.08-3.92L6.08-3.96C6.08-4.20 5.89-4.39 5.65-4.39Z"/><path fill="#F2F2F2" opacity="1" d="M13.59-4.39L9.21-4.39C9.08-4.39 9.06-4.43 9.06-4.56L9.06-8.09C9.06-8.21 9.10-8.24 9.24-8.24L12.79-8.24C13.03-8.24 13.23-8.44 13.23-8.67L13.23-8.70C13.23-8.94 13.03-9.13 12.79-9.13L9.21-9.13C9.08-9.13 9.06-9.17 9.06-9.31L9.06-12.59C9.06-12.70 9.10-12.74 9.24-12.74L13.32-12.74C13.56-12.74 13.75-12.94 13.75-13.18L13.75-13.20C13.75-13.44 13.56-13.63 13.32-13.63L8.58-13.63C8.35-13.63 8.17-13.44 8.17-13.20L8.17-3.92C8.17-3.68 8.35-3.49 8.58-3.49L13.59-3.49C13.82-3.49 14.02-3.68 14.02-3.92L14.02-3.96C14.02-4.20 13.82-4.39 13.59-4.39Z"/><path fill="#F2F2F2" opacity="1" d="M23.19-13.63L23.15-13.63C22.91-13.63 22.72-13.44 22.72-13.20C22.72-13.20 22.72-6.31 22.72-5.95C22.72-5.59 22.65-5.46 22.41-5.82C22.16-6.17 17.16-13.45 17.16-13.45C17.03-13.63 16.81-13.68 16.60-13.59C16.45-13.54 16.34-13.33 16.34-13.19L16.34-3.92C16.34-3.68 16.53-3.49 16.77-3.49L16.81-3.49C17.05-3.49 17.24-3.68 17.24-3.92C17.24-3.92 17.24-10.65 17.24-11.08C17.24-11.51 17.37-11.56 17.59-11.24C17.80-10.94 22.79-3.68 22.79-3.68C22.91-3.50 23.14-3.45 23.33-3.53C23.50-3.60 23.62-3.75 23.62-3.93L23.62-13.20C23.62-13.44 23.43-13.63 23.19-13.63Z"/><path fill="#F2F2F2" opacity="1" d="M31.31-13.80C28.40-13.80 26.06-11.47 26.06-8.56C26.06-5.67 28.40-3.31 31.31-3.31C32.62-3.31 33.78-3.79 34.67-4.57C34.72-4.61 34.81-4.72 34.81-4.88C34.81-4.95 34.81-5.43 34.81-5.77C34.81-5.92 34.72-5.93 34.63-5.82C33.88-4.81 32.69-4.14 31.31-4.14C28.91-4.14 26.95-6.16 26.95-8.56C26.95-10.97 28.91-12.97 31.31-12.97C32.69-12.97 33.88-12.31 34.63-11.30C34.72-11.19 34.81-11.20 34.81-11.37C34.81-11.70 34.81-12.17 34.81-12.26C34.81-12.40 34.72-12.52 34.67-12.55C33.81-13.29 32.62-13.80 31.31-13.80Z"/><path fill="#F2F2F2" opacity="1" d="M42.55-4.39L38.18-4.39C38.05-4.39 38.02-4.43 38.02-4.56L38.02-8.09C38.02-8.21 38.07-8.24 38.20-8.24L41.76-8.24C42.00-8.24 42.19-8.44 42.19-8.67L42.19-8.70C42.19-8.94 42.00-9.13 41.76-9.13L38.18-9.13C38.05-9.13 38.02-9.17 38.02-9.31L38.02-12.59C38.02-12.70 38.07-12.74 38.20-12.74L42.29-12.74C42.53-12.74 42.72-12.94 42.72-13.18L42.72-13.20C42.72-13.44 42.53-13.63 42.29-13.63L37.55-13.63C37.31-13.63 37.13-13.44 37.13-13.20L37.13-3.92C37.13-3.68 37.31-3.49 37.55-3.49L42.55-3.49C42.79-3.49 42.99-3.68 42.99-3.92L42.99-3.96C42.99-4.20 42.79-4.39 42.55-4.39Z"/><path fill="#F2F2F2" opacity="1" d="M-66.30 6.34C-67.58 6.40-68.03 5.37-68.03 4.53C-68.03 3.55-67.33 2.74-66.28 2.74C-65.59 2.74-65.20 3.10-64.73 3.67C-64.38 4.09-63.66 3.70-63.97 3.16C-64.43 2.35-65.26 1.91-66.28 1.91C-67.80 1.91-68.86 3.09-68.86 4.53C-68.86 6.15-67.68 7.24-66.30 7.19C-65.04 7.12-64.12 8.12-64.12 9.31C-64.12 10.64-64.95 11.57-66.28 11.57C-67.15 11.57-67.68 11.07-68.11 10.44C-68.57 9.80-69.36 10.33-68.97 10.97C-68.43 11.86-67.46 12.40-66.28 12.40C-64.50 12.40-63.27 11.09-63.27 9.31C-63.27 7.23-65.09 6.30-66.30 6.34Z"/><path fill="#F2F2F2" opacity="1" d="M-55.52 2.07L-60.97 2.07C-61.20 2.07-61.40 2.27-61.40 2.50L-61.40 2.53C-61.40 2.77-61.20 2.96-60.97 2.96L-58.84 2.96C-58.71 2.96-58.69 3.00-58.69 3.14L-58.69 11.79C-58.69 12.03-58.49 12.22-58.25 12.22L-58.23 12.22C-57.99 12.22-57.80 12.03-57.80 11.79L-57.80 3.12C-57.80 3.00-57.75 2.96-57.62 2.96L-55.52 2.96C-55.28 2.96-55.09 2.77-55.09 2.53L-55.09 2.50C-55.09 2.27-55.28 2.07-55.52 2.07Z"/><path fill="#F2F2F2" opacity="1" d="M-49.48 2.34C-49.55 2.16-49.72 2.07-49.90 2.07C-50.07 2.07-50.25 2.16-50.32 2.34L-54.21 11.61C-54.29 11.82-54.20 12.08-53.97 12.16L-53.95 12.18C-53.72 12.28-53.47 12.16-53.38 11.96C-53.38 11.96-52.39 9.61-52.32 9.44C-52.25 9.27-52.15 9.22-51.99 9.22C-51.85 9.22-48.75 9.22-47.83 9.22C-47.66 9.22-47.55 9.27-47.50 9.40C-47.44 9.52-46.43 11.96-46.43 11.96C-46.33 12.16-46.08 12.28-45.86 12.18L-45.83 12.16C-45.61 12.08-45.49 11.82-45.59 11.61L-49.48 2.34ZM-51.78 8.13C-51.74 8.04-50.47 4.84-50.04 3.91C-49.93 3.67-49.87 3.67-49.78 3.91C-49.39 4.84-48.11 7.95-48.04 8.09C-47.97 8.26-48.00 8.31-48.19 8.31C-48.37 8.31-50.83 8.31-51.61 8.31C-51.76 8.31-51.82 8.26-51.78 8.13Z"/><path fill="#F2F2F2" opacity="1" d="M-37.21 11.40C-37.56 11.40-37.07 10.12-37.07 9.37C-37.07 8.40-37.50 7.77-38.25 7.34C-38.45 7.23-38.43 7.16-38.28 7.05C-37.59 6.56-37.11 5.87-37.11 4.92C-37.11 3.10-38.75 2.07-40.63 2.07L-43.03 2.07C-43.27 2.07-43.47 2.27-43.47 2.63C-43.47 2.63-43.47 11.80-43.47 11.91C-43.47 12.03-43.27 12.22-43.03 12.22L-42.99 12.22C-42.76 12.22-42.56 12.05-42.56 11.91C-42.56 11.79-42.56 7.94-42.56 7.94C-42.56 7.81-42.52 7.79-42.39 7.79L-40.23 7.79C-38.61 7.79-37.99 8.24-37.99 9.37C-37.99 10.33-38.31 11.43-37.92 11.94C-37.77 12.15-37.46 12.30-37.21 12.30C-36.36 12.30-36.45 11.40-37.21 11.40ZM-40.63 6.88L-42.41 6.88C-42.53 6.88-42.56 6.84-42.56 6.72L-42.56 3.12C-42.56 3.00-42.52 2.96-42.39 2.96L-40.63 2.96C-39.25 2.96-38.00 3.59-38.00 4.92C-38.00 6.23-39.21 6.88-40.63 6.88Z"/><path fill="#F2F2F2" opacity="1" d="M-28.84 2.07L-34.29 2.07C-34.53 2.07-34.72 2.27-34.72 2.50L-34.72 2.53C-34.72 2.77-34.53 2.96-34.29 2.96L-32.16 2.96C-32.04 2.96-32.01 3.00-32.01 3.14L-32.01 11.79C-32.01 12.03-31.82 12.22-31.58 12.22L-31.55 12.22C-31.32 12.22-31.12 12.03-31.12 11.79L-31.12 3.12C-31.12 3.00-31.08 2.96-30.94 2.96L-28.84 2.96C-28.61 2.96-28.41 2.77-28.41 2.53L-28.41 2.50C-28.41 2.27-28.61 2.07-28.84 2.07Z"/><path fill="#F2F2F2" opacity="1" d="M-23.76 6.34C-25.03 6.40-25.48 5.37-25.48 4.53C-25.48 3.55-24.78 2.74-23.73 2.74C-23.05 2.74-22.66 3.10-22.18 3.67C-21.84 4.09-21.11 3.70-21.42 3.16C-21.88 2.35-22.71 1.91-23.73 1.91C-25.26 1.91-26.31 3.09-26.31 4.53C-26.31 6.15-25.13 7.24-23.76 7.19C-22.49 7.12-21.57 8.12-21.57 9.31C-21.57 10.64-22.41 11.57-23.73 11.57C-24.60 11.57-25.13 11.07-25.56 10.44C-26.02 9.80-26.81 10.33-26.42 10.97C-25.88 11.86-24.91 12.40-23.73 12.40C-21.95 12.40-20.72 11.09-20.72 9.31C-20.72 7.23-22.55 6.30-23.76 6.34Z"/><path fill="#F2F2F2" opacity="1" d=""/><path fill="#F2F2F2" opacity="1" d="M-6.32 2.07L-11.05 2.07C-11.29 2.07-11.48 2.27-11.48 2.50L-11.48 11.79C-11.48 12.03-11.29 12.22-11.05 12.22L-11.02 12.22C-10.79 12.22-10.59 12.03-10.59 11.79L-10.59 7.62C-10.59 7.51-10.55 7.47-10.41 7.47L-6.85 7.47C-6.62 7.47-6.42 7.27-6.42 7.04L-6.42 7.01C-6.42 6.77-6.62 6.58-6.85 6.58L-10.44 6.58C-10.55 6.58-10.59 6.53-10.59 6.40L-10.59 3.12C-10.59 3.00-10.55 2.96-10.41 2.96L-6.32 2.96C-6.09 2.96-5.89 2.77-5.89 2.53L-5.89 2.50C-5.89 2.27-6.09 2.07-6.32 2.07Z"/><path fill="#F2F2F2" opacity="1" d="M2.45 11.40C2.10 11.40 2.59 10.12 2.59 9.37C2.59 8.40 2.15 7.77 1.40 7.34C1.21 7.23 1.22 7.16 1.38 7.05C2.07 6.56 2.54 5.87 2.54 4.92C2.54 3.10 0.90 2.07-0.97 2.07L-3.38 2.07C-3.61 2.07-3.81 2.27-3.81 2.63C-3.81 2.63-3.81 11.80-3.81 11.91C-3.81 12.03-3.61 12.22-3.38 12.22L-3.34 12.22C-3.10 12.22-2.91 12.05-2.91 11.91C-2.91 11.79-2.91 7.94-2.91 7.94C-2.91 7.81-2.86 7.79-2.74 7.79L-0.57 7.79C1.04 7.79 1.67 8.24 1.67 9.37C1.67 10.33 1.35 11.43 1.74 11.94C1.89 12.15 2.20 12.30 2.45 12.30C3.29 12.30 3.21 11.40 2.45 11.40ZM-0.97 6.88L-2.75 6.88C-2.88 6.88-2.91 6.84-2.91 6.72L-2.91 3.12C-2.91 3.00-2.86 2.96-2.74 2.96L-0.97 2.96C0.40 2.96 1.65 3.59 1.65 4.92C1.65 6.23 0.44 6.88-0.97 6.88Z"/><path fill="#F2F2F2" opacity="1" d="M10.54 1.91C7.63 1.91 5.28 4.24 5.28 7.15C5.28 10.04 7.63 12.40 10.54 12.40C13.44 12.40 15.65 10.04 15.65 7.15C15.65 4.24 13.44 1.91 10.54 1.91ZM10.54 11.57C8.13 11.57 6.17 9.55 6.17 7.15C6.17 4.73 8.13 2.73 10.54 2.73C12.94 2.73 14.76 4.73 14.76 7.15C14.76 9.55 12.94 11.57 10.54 11.57Z"/><path fill="#F2F2F2" opacity="1" d="M26.10 2.07C25.91 2.07 25.81 2.16 25.76 2.20C25.76 2.20 22.87 5.69 22.64 5.95C22.32 6.33 22.34 6.38 22.03 6.02C21.84 5.78 18.86 2.20 18.86 2.20C18.81 2.16 18.72 2.07 18.51 2.07C18.28 2.07 18.08 2.27 18.08 2.50L18.08 11.79C18.08 12.03 18.28 12.22 18.51 12.22L18.56 12.22C18.79 12.22 18.99 12.03 18.99 11.79C18.99 11.79 18.99 4.39 18.99 4.07C18.99 3.77 19.08 3.73 19.25 3.94C19.99 4.84 21.95 7.24 21.99 7.30C22.06 7.37 22.18 7.42 22.31 7.42C22.43 7.42 22.50 7.40 22.63 7.30C22.73 7.22 24.67 4.78 25.38 3.91C25.53 3.71 25.63 3.71 25.63 4.07C25.63 4.45 25.63 11.79 25.63 11.79C25.63 12.03 25.83 12.22 26.06 12.22L26.10 12.22C26.34 12.22 26.54 12.03 26.54 11.79L26.54 2.50C26.54 2.27 26.34 2.07 26.10 2.07Z"/><path fill="#F2F2F2" opacity="1" d=""/><path fill="#F2F2F2" opacity="1" d="M42.80 2.07L42.76 2.07C42.52 2.07 42.33 2.27 42.33 2.50L42.33 6.44C42.33 6.51 42.27 6.58 42.20 6.58L37.02 6.58C36.95 6.58 36.89 6.51 36.89 6.44L36.89 2.50C36.89 2.27 36.70 2.07 36.46 2.07L36.42 2.07C36.18 2.07 35.99 2.27 35.99 2.50L35.99 11.79C35.99 12.03 36.18 12.22 36.42 12.22L36.46 12.22C36.70 12.22 36.89 12.03 36.89 11.79L36.89 7.61C36.89 7.52 36.95 7.47 37.02 7.47L42.20 7.47C42.27 7.47 42.33 7.52 42.33 7.61L42.33 11.79C42.33 12.03 42.52 12.22 42.76 12.22L42.80 12.22C43.03 12.22 43.23 12.03 43.23 11.79L43.23 2.50C43.23 2.27 43.03 2.07 42.80 2.07Z"/><path fill="#F2F2F2" opacity="1" d="M51.29 11.32L46.91 11.32C46.79 11.32 46.76 11.27 46.76 11.15L46.76 7.62C46.76 7.49 46.80 7.47 46.94 7.47L50.50 7.47C50.74 7.47 50.93 7.27 50.93 7.04L50.93 7.01C50.93 6.77 50.74 6.58 50.50 6.58L46.91 6.58C46.79 6.58 46.76 6.53 46.76 6.40L46.76 3.12C46.76 3.00 46.80 2.96 46.94 2.96L51.03 2.96C51.26 2.96 51.46 2.77 51.46 2.53L51.46 2.50C51.46 2.27 51.26 2.07 51.03 2.07L46.29 2.07C46.05 2.07 45.87 2.27 45.87 2.50L45.87 11.79C45.87 12.03 46.05 12.22 46.29 12.22L51.29 12.22C51.53 12.22 51.72 12.03 51.72 11.79L51.72 11.75C51.72 11.51 51.53 11.32 51.29 11.32Z"/><path fill="#F2F2F2" opacity="1" d="M60.30 11.40C59.95 11.40 60.44 10.12 60.44 9.37C60.44 8.40 60.01 7.77 59.26 7.34C59.06 7.23 59.07 7.16 59.23 7.05C59.92 6.56 60.40 5.87 60.40 4.92C60.40 3.10 58.76 2.07 56.88 2.07L54.47 2.07C54.24 2.07 54.04 2.27 54.04 2.63C54.04 2.63 54.04 11.80 54.04 11.91C54.04 12.03 54.24 12.22 54.47 12.22L54.52 12.22C54.75 12.22 54.95 12.05 54.95 11.91C54.95 11.79 54.95 7.94 54.95 7.94C54.95 7.81 54.99 7.79 55.11 7.79L57.28 7.79C58.89 7.79 59.52 8.24 59.52 9.37C59.52 10.33 59.20 11.43 59.59 11.94C59.74 12.15 60.05 12.30 60.30 12.30C61.15 12.30 61.06 11.40 60.30 11.40ZM56.88 6.88L55.10 6.88C54.97 6.88 54.95 6.84 54.95 6.72L54.95 3.12C54.95 3.00 54.99 2.96 55.11 2.96L56.88 2.96C58.25 2.96 59.51 3.59 59.51 4.92C59.51 6.23 58.30 6.88 56.88 6.88Z"/><path fill="#F2F2F2" opacity="1" d="M68.76 11.32L64.38 11.32C64.26 11.32 64.23 11.27 64.23 11.15L64.23 7.62C64.23 7.49 64.27 7.47 64.41 7.47L67.97 7.47C68.21 7.47 68.40 7.27 68.40 7.04L68.40 7.01C68.40 6.77 68.21 6.58 67.97 6.58L64.38 6.58C64.26 6.58 64.23 6.53 64.23 6.40L64.23 3.12C64.23 3.00 64.27 2.96 64.41 2.96L68.50 2.96C68.74 2.96 68.93 2.77 68.93 2.53L68.93 2.50C68.93 2.27 68.74 2.07 68.50 2.07L63.76 2.07C63.52 2.07 63.34 2.27 63.34 2.50L63.34 11.79C63.34 12.03 63.52 12.22 63.76 12.22L68.76 12.22C69.00 12.22 69.19 12.03 69.19 11.79L69.19 11.75C69.19 11.51 69.00 11.32 68.76 11.32Z"/></g><g transform="matrix(0 -1.329152513506621 1.1767934429801667 0 119.82874376535051 250.37717244405965)"  >
<path style="stroke: none; stroke-width: 0; stroke-dasharray: none; stroke-linecap: butt; stroke-dashoffset: 0; stroke-linejoin: miter; stroke-miterlimit: 4; fill: rgb(242,242,242); fill-rule: nonzero; opacity: 1;"  transform=" translate(-49.9821566566983, -49.7)" d="M 92.1 53.1 c -25.6 -11.6 -58.6 -11.6 -84.2 0 c -0.5 0.2 -0.7 0.8 -0.5 1.3 c 0.2 0.5 0.8 0.7 1.3 0.5 c 25.1 -11.4 57.5 -11.4 82.5 0 c 0.1 0.1 0.3 0.1 0.4 0.1 c 0.4 0 0.7 -0.2 0.9 -0.6 C 92.8 53.9 92.6 53.3 92.1 53.1 z" stroke-linecap="round" />
</g>
<g transform="matrix(0 -1.329152513506621 -1.1767934429801667 0 380.64896321840524 250.37717244405957)"  >
<path style="stroke: none; stroke-width: 0; stroke-dasharray: none; stroke-linecap: butt; stroke-dashoffset: 0; stroke-linejoin: miter; stroke-miterlimit: 4; fill: rgb(242,242,242); fill-rule: nonzero; opacity: 1;"  transform=" translate(-49.9821566566983, -49.7)" d="M 92.1 53.1 c -25.6 -11.6 -58.6 -11.6 -84.2 0 c -0.5 0.2 -0.7 0.8 -0.5 1.3 c 0.2 0.5 0.8 0.7 1.3 0.5 c 25.1 -11.4 57.5 -11.4 82.5 0 c 0.1 0.1 0.3 0.1 0.4 0.1 c 0.4 0 0.7 -0.2 0.9 -0.6 C 92.8 53.9 92.6 53.3 92.1 53.1 z" stroke-linecap="round" />
</g>
<g transform="matrix(1.1875 0 0 1.125 250 230)"  >
<g style=""   >
		<g transform="matrix(1 0 0 1 0.5001223485155464 18.34791504220017)"  >
<path style="stroke: none; stroke-width: 1; stroke-dasharray: none; stroke-linecap: butt; stroke-dashoffset: 0; stroke-linejoin: miter; stroke-miterlimit: 4; fill: rgb(255,87,87); fill-rule: nonzero; opacity: 1;"  transform=" translate(-32.000122348515546, -49.84791504220017)" d="M 62.163 42.809 c -2.215 -4.047 -6.347 -1.308 -6.347 -1.308 l -10.985 6.164 c -0.305 0.171 -0.59 0.389 -0.843 0.631 c -11.028 10.523 -21.21 2.334 -21.21 2.334 c 6.891 2.42 13.541 0.462 16.524 -1.998 c 2.728 -2.159 2.634 -4.753 -2.655 -5.11 c -7.858 -0.531 -10.478 -1.918 -11.35 -2.817 c -0.918 -0.946 -1.899 -1.843 -3.072 -2.443 c -10.727 -5.493 -21.152 3.822 -21.152 3.822 l 0.617 1.145 l 6.971 12.948 l 1.075 1.998 c 0.034 0.063 0.108 0.094 0.175 0.07 l 0.001 0 c 0.921 -0.35 1.765 -0.976 2.545 -1.604 c 1.817 -1.459 3.58 -1.389 5.582 -0.283 c 3.474 1.922 7.065 3.628 10.565 5.505 c 0.767 0.412 1.526 0.741 2.277 0.984 c 0.005 0.001 0.01 0.003 0.015 0.004 c 2.888 0.646 5.427 0.207 7.325 -0.454 c 2.155 -0.749 3.485 -1.785 3.569 -1.851 c 0.003 -0.003 0.006 -0.005 0.01 -0.007 l 18.536 -12.194 c 0.872 -0.605 1.503 -1.199 1.935 -1.765 C 63.458 45.026 62.793 43.959 62.163 42.809 z" stroke-linecap="round" />
</g>
		<g transform="matrix(1 0 0 1 -6.054500000000001 -26.2245)"  >
<path style="stroke: none; stroke-width: 1; stroke-dasharray: none; stroke-linecap: butt; stroke-dashoffset: 0; stroke-linejoin: miter; stroke-miterlimit: 4; fill: rgb(255,87,87); fill-rule: nonzero; opacity: 1;"  transform=" translate(-25.4455, -5.275500000000001)" d="M 25.363 5.347 c 0.055 -0.048 0.11 -0.096 0.165 -0.143 C 25.472 5.251 25.418 5.299 25.363 5.347 z" stroke-linecap="round" />
</g>
		<g transform="matrix(1 0 0 1 12.74920082140818 -20.688783454649375)"  >
<path style="stroke: none; stroke-width: 1; stroke-dasharray: none; stroke-linecap: butt; stroke-dashoffset: 0; stroke-linejoin: miter; stroke-miterlimit: 4; fill: rgb(255,87,87); fill-rule: nonzero; opacity: 1;"  transform=" translate(-44.24920082140818, -10.811216545350623)" d="M 45.475 11.296 c -0.024 -0.41 -0.518 -0.565 -0.859 -0.745 c 0.018 -0.376 0.118 -0.08 0.094 -0.443 c -0.118 -0.005 -0.188 -0.023 -0.3 0.024 c -0.265 0.118 -0.118 0.151 -0.118 0.193 c 0.012 0.203 0.265 -0.042 -0.006 0.208 c -0.077 0.066 -0.2 0.066 -0.294 0.075 c -0.182 -0.254 -0.171 -0.382 -0.524 -0.391 c -0.141 0.151 -0.306 0.377 -0.382 0.608 c -0.118 0.349 -0.035 0.108 -0.024 0.485 c -0.006 0.014 0 0.033 0 0.047 c -0.006 0.226 -0.059 -0.042 -0.024 0.165 c 0.277 -0.057 0.065 -0.052 0.271 -0.118 c 0.194 -0.066 0.789 -0.245 0.959 -0.203 C 44.674 11.296 45.016 11.617 45.475 11.296 z" stroke-linecap="round" />
</g>
		<g transform="matrix(1 0 0 1 15.60953499366424 -20.275723907318696)"  >
<path style="stroke: none; stroke-width: 1; stroke-dasharray: none; stroke-linecap: butt; stroke-dashoffset: 0; stroke-linejoin: miter; stroke-miterlimit: 4; fill: rgb(255,87,87); fill-rule: nonzero; opacity: 1;"  transform=" translate(-47.10953499366424, -11.224276092681304)" d="M 46.934 12.102 c 0.288 0.208 0.5 0.334 0.876 0.231 c 0.053 -0.462 -0.094 -0.438 -0.235 -0.754 c 0.023 -0.038 0.088 -0.085 0.1 -0.094 c 0.106 -0.141 0.053 0.056 0.106 -0.184 c -0.276 -0.089 -0.724 -0.372 -0.759 -0.744 c 0.135 -0.108 0.094 -0.042 0.194 -0.108 c 0.218 -0.142 0.053 0.075 0.182 -0.165 c -0.111 -0.217 -0.235 -0.255 -0.506 -0.146 c -0.117 0.047 -0.429 0.269 -0.494 0.32 c 0.041 0.575 0.382 0.797 0.624 1.06 C 46.992 11.791 46.928 11.72 46.934 12.102 z" stroke-linecap="round" />
</g>
		<g transform="matrix(1 0 0 1 5.927499999999995 -12.288999999999987)"  >
<path style="stroke: none; stroke-width: 1; stroke-dasharray: none; stroke-linecap: butt; stroke-dashoffset: 0; stroke-linejoin: miter; stroke-miterlimit: 4; fill: rgb(255,87,87); fill-rule: nonzero; opacity: 1;"  transform=" translate(-37.427499999999995, -19.211000000000013)" d="M 55.518 16.022 c -0.053 -0.084 -0.111 -0.196 -0.166 -0.358 c -0.358 0.117 -0.37 0.126 -0.794 0.197 l -0.019 0.025 c -0.168 0.241 0.008 0.14 -0.287 0.39 c -0.352 0.296 -0.582 0.701 -0.975 0.942 c -0.048 0.42 0.035 0.514 -0.071 1.013 c -0.042 0.184 -0.248 0.678 -0.488 0.641 c -0.077 -0.014 -0.401 -0.816 -0.476 -1.037 c -0.13 -0.376 -0.277 -0.656 -0.37 -1.089 c -0.053 -0.231 -0.089 -0.674 -0.142 -0.829 c -0.253 0.037 -0.241 0.198 -0.482 0.029 c -0.171 -0.124 -0.094 -0.198 -0.189 -0.382 c -0.2 -0.188 -0.405 -0.376 -0.611 -0.565 c -0.159 -0.051 -0.771 0.038 -1.03 0.01 c -0.465 -0.042 -0.505 -0.014 -0.782 -0.386 c -0.49 0.024 -0.447 0.207 -0.925 -0.202 c -0.312 -0.265 -0.253 -0.688 -0.705 -0.449 c -0.018 0.387 0.171 0.472 0.34 0.651 c 0.124 0.137 0.277 0.231 0.342 0.414 c 0.006 0.006 0.035 0.179 0.041 0.203 c 0.441 0.029 0.547 -0.184 0.788 -0.362 c 0.236 0.221 0.006 0.259 0.348 0.433 c 0.271 0.137 0.218 0.057 0.395 0.278 c 0.088 0.297 -0.606 1.102 -0.836 1.249 c -0.176 0.113 -0.271 0.047 -0.429 0.178 c -0.235 0.198 0.03 0.17 -0.381 0.321 c -0.441 0.16 -0.878 0.499 -1.342 0.527 c -0.1 -0.273 -0.2 -0.551 -0.299 -0.829 c -0.295 -0.947 -0.283 -0.58 -0.582 -1.069 c -0.142 -0.212 -0.083 -0.349 -0.177 -0.538 c -0.065 -0.141 -0.165 -0.202 -0.254 -0.376 c -0.135 -0.268 -0.293 -0.687 -0.605 -0.645 c -0.065 0.212 0.287 0.927 0.376 1.102 c 0.088 0.174 0.229 0.25 0.271 0.499 c 0.059 0.344 -0.012 0.302 0.176 0.533 c 0.395 0.475 -0.017 0.391 0.594 0.856 c 0.459 0.349 0.342 0.453 0.536 0.919 c 0.3 0.085 1.193 -0.315 1.346 -0.197 c 0.183 0.325 -0.21 0.843 -0.312 1.126 c -0.33 0.947 -0.906 0.932 -1.347 1.657 c -0.241 0.392 -0.352 0.444 -0.576 0.914 c -0.253 0.533 0.511 2.007 0.053 2.625 c -0.1 0.141 -0.423 0.226 -0.829 0.654 c -0.431 0.467 0.011 0.386 -0.154 1.164 c -0.129 0.178 -0.287 0.188 -0.447 0.315 c -0.058 0.184 -0.011 0.33 -0.111 0.556 c -0.106 0.273 -0.124 0.127 -0.278 0.349 c -0.111 0.174 -0.099 0.244 -0.229 0.405 c -0.112 0.146 -0.171 0.188 -0.277 0.283 c -0.512 0.472 -1.612 0.485 -1.706 0.419 c -0.26 -0.221 -0.083 -0.278 -0.147 -0.588 c -0.064 -0.274 -0.208 -0.503 -0.33 -0.713 l -0.012 -0.022 c -0.059 -0.103 -0.112 -0.203 -0.142 -0.297 c -0.212 -0.669 -0.135 -1.178 -0.505 -1.856 c -0.465 -0.877 0.259 -1.334 0.229 -1.828 c -0.012 -0.131 -0.059 -0.212 -0.071 -0.315 c -0.088 -0.546 -0.141 -1.037 -0.505 -1.465 c -0.401 -0.467 -0.348 -0.302 -0.218 -1.069 c 0.165 -0.88 -0.212 -0.656 -0.741 -0.678 c -0.26 -0.801 -0.765 -0.41 -1.271 -0.174 c -0.318 0.146 -0.435 -0.042 -0.794 0.01 c -0.801 0.108 -0.171 0.452 -1.241 -0.396 c -0.447 -0.354 -0.147 -0.174 -0.413 -0.617 c -0.088 -0.16 -0.358 -0.373 -0.482 -0.533 c -0.405 -0.509 0.077 -1.022 0.006 -1.606 c -0.123 -1.084 -0.299 -0.142 0.307 -1.452 c 0.318 -0.696 0.8 -0.701 0.924 -1.013 c 0.106 -0.278 0.035 -0.475 0.235 -0.73 c 0.177 -0.207 0.429 -0.165 0.529 -0.49 c 0.142 -0.401 -0.129 -0.452 -0.423 -0.462 c -0.123 -0.419 -0.123 -0.315 -0.029 -0.701 c 0.053 -0.218 0.006 -0.321 0.053 -0.538 c 0.118 -0.541 1.042 -0.005 1.306 -0.226 c 0.123 -0.231 0.141 -0.457 0 -0.678 c -0.148 -0.221 -0.342 -0.194 -0.441 -0.405 c 0.224 -0.15 0.059 -0.018 0.253 -0.061 c 0.23 -0.052 0.2 -0.118 0.47 -0.168 c 0.242 -0.048 0.396 -0.269 0.63 -0.42 c 0.336 -0.217 0.176 -0.41 0.582 -0.476 c 0.653 -0.113 0.23 -0.094 0.301 -0.701 c 0.099 -0.038 0.194 -0.081 0.287 -0.123 c 0.206 0.268 -0.053 0.16 0.195 0.339 c 0.064 -0.037 0.141 -0.076 0.212 -0.113 c -0.036 -0.292 -0.171 -0.236 -0.26 -0.598 c -0.324 0.052 -0.44 0.325 -0.7 0.226 c -0.253 -0.095 -0.265 -0.457 -0.253 -0.759 c 0.094 -0.226 0.564 -0.349 0.747 -0.405 c 0.295 -0.099 0.253 -0.297 0.524 -0.565 c 0.352 -0.354 0.094 0.005 0.265 -0.452 c 0.389 -0.014 0.206 -0.028 0.435 -0.146 l 0.011 -0.005 l 0.024 -0.01 c 0.135 -0.061 0.312 -0.076 0.488 -0.136 c 0.647 -0.217 0.912 -0.108 1.382 0.084 c 0.364 0.15 1.465 0.155 1.548 0.617 c -0.266 0.278 -0.518 0.076 -0.901 0.099 c 0.071 0.358 0.1 0.358 0.423 0.457 c 0.053 -0.17 -0.023 -0.103 0.065 -0.212 c 0.106 0.023 0.212 0.042 0.318 0.061 c 0.107 -0.363 0.23 -0.312 0.589 -0.354 c -0.06 -0.25 -0.124 -0.179 0.011 -0.376 c 0.372 0.037 0.071 0.005 0.253 0.302 c 0.26 -0.034 0.512 -0.321 0.871 -0.358 c 0.224 -0.024 0.213 0.061 0.529 0.028 c 0.26 -0.028 0.248 -0.121 0.506 -0.013 c 0.094 -0.174 0 -0.17 0.23 -0.213 c 0.352 -0.061 0.659 0.155 1 0.203 c -0.253 -0.312 -0.493 -0.25 -0.182 -0.769 c 0.393 -0.079 0.429 -0.023 0.6 0.274 c 0.096 -0.055 0.137 -0.109 0.185 -0.137 c -0.026 -0.022 -0.053 -0.043 -0.081 -0.065 c -0.147 -0.117 -0.295 -0.231 -0.446 -0.343 c -0.029 -0.022 -0.058 -0.042 -0.088 -0.064 c -0.125 -0.093 -0.253 -0.184 -0.381 -0.273 c -0.041 -0.028 -0.081 -0.057 -0.121 -0.084 c -0.155 -0.106 -0.312 -0.21 -0.469 -0.312 c -0.014 -0.01 -0.03 -0.018 -0.045 -0.028 c -0.144 -0.091 -0.291 -0.182 -0.439 -0.269 c -0.046 -0.028 -0.091 -0.055 -0.137 -0.082 c -0.141 -0.082 -0.283 -0.164 -0.425 -0.242 c -0.025 -0.013 -0.049 -0.028 -0.073 -0.041 c -0.162 -0.089 -0.327 -0.174 -0.493 -0.259 c -0.048 -0.024 -0.096 -0.047 -0.143 -0.071 c -0.134 -0.065 -0.267 -0.13 -0.402 -0.192 c -0.042 -0.019 -0.084 -0.04 -0.127 -0.059 c -0.167 -0.077 -0.337 -0.15 -0.508 -0.223 c -0.045 -0.018 -0.09 -0.036 -0.135 -0.055 c -0.136 -0.055 -0.272 -0.109 -0.409 -0.161 c -0.053 -0.02 -0.105 -0.041 -0.156 -0.06 c -0.174 -0.065 -0.349 -0.127 -0.526 -0.186 c -0.034 -0.011 -0.067 -0.022 -0.101 -0.032 c -0.149 -0.049 -0.298 -0.097 -0.45 -0.143 c -0.057 -0.017 -0.114 -0.034 -0.172 -0.051 c -0.159 -0.047 -0.318 -0.091 -0.479 -0.134 c -0.026 -0.006 -0.052 -0.014 -0.078 -0.02 c -0.182 -0.047 -0.364 -0.09 -0.547 -0.131 c -0.058 -0.013 -0.117 -0.025 -0.176 -0.038 c -0.146 -0.031 -0.291 -0.06 -0.438 -0.088 c -0.048 -0.01 -0.096 -0.019 -0.144 -0.028 c -0.184 -0.034 -0.37 -0.064 -0.557 -0.091 c -0.055 -0.008 -0.112 -0.016 -0.167 -0.024 c -0.146 -0.02 -0.29 -0.038 -0.437 -0.055 c -0.058 -0.007 -0.117 -0.014 -0.176 -0.02 c -0.189 -0.02 -0.378 -0.037 -0.569 -0.052 c -0.046 -0.004 -0.091 -0.006 -0.137 -0.008 c -0.155 -0.011 -0.31 -0.019 -0.465 -0.025 c -0.064 -0.004 -0.126 -0.006 -0.19 -0.007 c -0.183 -0.006 -0.366 -0.01 -0.548 -0.011 h -0.045 c -4.515 0 -8.648 1.63 -11.846 4.331 l 0.008 0.017 c 0.024 0.038 0.041 0.038 0.065 0.137 c -0.296 0.072 -0.297 0.121 -0.409 0.136 c -0.067 0.061 -0.136 0.121 -0.203 0.183 c 0.214 0.073 0.496 0.024 0.706 0.016 c 0.077 -0.141 0.124 -0.265 0.259 -0.315 c 0.053 -0.019 0.118 -0.024 0.207 -0.019 c 0.011 0.07 0.029 0.141 0.047 0.212 c 0 0.005 0.007 0.035 0.007 0.042 c 0.006 -0.005 0.011 0.03 0.016 0.043 c 0.372 -0.217 0.059 -0.221 0.259 -0.612 c -0.312 -0.061 -0.269 -0.024 -0.464 -0.223 c 0.189 -0.207 0.553 -0.278 0.824 -0.259 c -0.018 0.189 -0.106 0.184 -0.035 0.344 c 0.212 -0.132 0.358 -0.485 0.7 -0.42 c 0.064 0.047 0.141 0.09 0.212 0.132 c -0.177 0.165 -0.441 0.174 -0.671 0.268 c -0.1 1.022 0.324 0.165 0.183 0.867 c 0.253 -0.019 0.5 -0.202 0.594 -0.391 c -0.094 -0.123 -0.23 -0.123 -0.307 -0.268 c 0.06 -0.189 0.186 -0.332 0.366 -0.416 c 0.12 -0.058 0.266 -0.089 0.429 -0.089 c 1.87 0.014 0.981 0.1 1.559 0.363 c 0.13 0.057 0.358 0.085 0.435 0.198 c 0.118 0.179 0.006 0.348 0.194 0.49 c 0.165 0.123 0.189 -0.005 0.407 0.268 c -0.047 0.155 -0.159 0.316 -0.389 0.321 c -0.318 0.005 -0.129 -0.213 -0.47 -0.179 c 0.006 0.32 0.324 0.443 0.029 0.617 c -0.259 0.155 -0.094 -0.057 -0.287 0.052 c -0.006 0.005 -0.024 0.014 -0.03 0.019 c -0.012 0.008 -0.023 0.023 -0.03 0.032 c -0.035 0.037 -0.064 0.071 -0.094 0.103 c -0.47 -0.127 -0.381 -0.07 -0.664 -0.381 c -0.106 -0.118 -0.124 -0.147 -0.313 -0.131 c -0.117 0.004 -0.269 0.055 -0.382 -0.048 c 0.23 -0.287 0.342 -0.008 0.677 -0.179 c 0.059 -0.028 0.429 -0.315 0.488 -0.381 c -0.1 -0.226 -0.012 -0.038 -0.159 -0.184 c -0.33 -0.334 -0.425 -0.249 -0.871 -0.249 c -0.209 0.241 -0.366 0.538 -0.594 0.669 c -0.137 0.079 -0.301 0.097 -0.517 0.005 c 0.1 0.405 0.358 0.094 0.381 0.585 c -0.17 -0.034 -0.259 -0.119 -0.435 -0.057 c -0.376 0.141 -0.041 0.126 -0.011 0.202 c 0 0.005 0.176 0.023 0 0.089 c -0.195 0.071 -0.03 -0.037 -0.407 -0.259 c 0.053 -0.094 0.106 -0.192 0.159 -0.292 c -0.306 0.094 -0.688 0.245 -1.046 0.42 c -0.407 0.202 -0.789 0.433 -1.018 0.645 c -0.006 0.354 0.058 0.118 0.094 0.538 c 0.547 0.032 0.37 0.197 0.918 0.352 c 0.106 0.029 0.241 0.057 0.407 0.085 c 0 0.263 -0.236 0.462 -0.072 0.735 c 0.382 0.268 0.395 -0.255 0.49 -0.588 c 1.294 -0.271 0.67 -0.652 1.004 -1.364 c 0.051 -0.106 0.121 -0.22 0.225 -0.342 c 0.1 0.004 0.505 0.047 0.594 0.065 c 0.293 0.052 0.135 0.123 0.452 0.263 c -0.006 0.255 -0.135 0.585 0.242 0.523 c 0.287 -0.051 0.224 -0.278 0.576 -0.334 c 0.159 0.373 0.118 0.533 0.189 0.98 c 0.847 0.33 0.47 0.598 0.306 1.215 c 0.106 0.052 0.218 0.1 0.33 0.147 c -0.006 0.179 -0.012 0.352 -0.018 0.528 c -0.017 0 -0.906 -0.194 -0.965 -0.213 c 0.136 -0.386 0.382 -0.391 0.541 -0.787 c -0.318 0.057 -0.295 0.155 -0.523 0.226 c -0.206 0.061 -0.364 0.019 -0.581 0.047 c 0.006 0.017 0.012 0.048 0.016 0.103 c 0.012 0.123 0.071 0.006 -0.012 0.137 c -0.293 -0.137 -0.194 -0.457 -0.741 -0.16 c 0.124 0.057 0.247 0.108 0.376 0.16 c -0.017 0.362 -0.047 0.089 -0.124 0.33 c -0.188 0.617 0.512 0.236 0.695 0.203 c -0.048 0.325 -0.248 0.325 -0.53 0.414 c -0.312 0.094 -0.405 0.221 -0.653 0.279 c 0 -0.387 -0.058 -0.061 0.112 -0.331 c -0.247 0.024 -0.429 0.137 -0.664 0.236 l -0.024 0.01 c -0.302 0.123 -0.348 0.141 -0.382 0.527 c -0.259 0.081 -0.558 0.171 -0.741 0.358 c -0.183 0.174 -0.364 0.349 -0.541 0.518 c -0.018 0.014 -0.03 0.028 -0.041 0.037 c 0.065 0.486 0 0.494 -0.295 0.683 c -0.248 0.16 -0.33 0.156 -0.559 0.358 c -0.735 0.659 -0.381 0.352 -0.342 1.488 c -0.153 -0.047 -0.3 -0.099 -0.44 -0.15 c -0.112 -0.753 0.041 -0.504 -0.565 -0.678 c -0.653 -0.188 -0.564 0.132 -0.835 0.189 c -0.301 0.066 -0.447 -0.273 -0.883 0.01 c -0.241 0.165 -0.47 0.273 -0.529 0.565 c -0.071 0.354 -0.23 0.612 -0.206 1.003 c 0.041 1.06 1.006 1.121 1.252 0.627 c 0.165 -0.33 0.124 -0.509 0.659 -0.423 c 0.053 0.283 -0.029 0.49 -0.1 0.706 c -0.047 0.127 -0.177 0.357 -0.112 0.533 c 0.382 0.155 0.395 -0.137 0.9 0.164 c 0.036 0.505 -0.229 1.07 0.16 1.362 c 0.3 0.221 0.318 0.024 0.582 -0.023 c 0.295 -0.052 0.241 0.131 0.511 0.174 c 0.154 -0.189 0.089 -0.071 0.189 -0.302 c 0.177 -0.401 0.224 -0.212 0.641 -0.457 c 0.041 -0.023 0.076 -0.047 0.118 -0.075 c 0.047 0.099 0.1 0.192 0.147 0.287 c 0.306 -0.363 0.342 -0.01 0.694 0.089 c 0.152 0.042 0.26 0.057 0.344 0.058 c 0.256 0.004 0.283 -0.121 0.633 0.004 c 0.041 0.019 0.094 0.032 0.142 0.047 c 0.006 0 0.023 0.01 0.023 0.019 c 0.006 0.005 0.024 0.018 0.029 0.023 c 0.059 0.066 0.065 0.132 0.112 0.203 c 0.242 0.23 0.484 0.462 0.718 0.688 c 0.464 0.183 0.464 -0.161 0.995 0.352 c 0.224 0.212 0.123 0.208 0.247 0.481 c 0.018 0.042 0.053 0.084 0.077 0.136 c 0.047 0.127 0.1 0.25 0.153 0.373 c 0.242 0.315 0.57 0.118 0.906 0.443 c 0.194 0.189 0.047 0.131 0.476 0.207 c 0.665 0.108 0.407 0.048 0.913 0.429 c 0.194 0.141 0.241 0.061 0.423 0.183 c 0.253 0.354 0.188 0.736 -0.024 1.046 c -0.653 0.951 -0.429 0.796 -0.458 1.55 c -0.024 0.433 -0.147 1.328 -0.553 1.436 c -1.477 0.415 -0.618 0.702 -1.006 1.431 c -0.112 0.208 -0.195 0.26 -0.266 0.425 c -0.293 0.688 -0.088 0.919 -0.959 0.764 c 0.083 0.146 0.03 0.047 0.112 0.178 c 0.259 0.401 0.301 0.702 -0.23 0.801 c -0.44 0.084 -0.253 0 -0.293 0.49 c -0.171 0.071 -0.248 0 -0.358 0.113 c 0.153 0.283 0.011 0.047 0.271 0.208 c -0.048 0.155 -0.083 0.306 -0.124 0.456 c -0.1 0.368 -0.13 0.029 -0.165 0.457 c 0.153 0.071 0.259 0.057 0.395 0.241 c -0.018 0.142 -0.159 0.528 -0.201 0.749 c 0.218 0.325 0.395 0.674 0.86 0.707 c -0.006 0.272 0.058 0.244 -0.177 0.301 c -0.2 0.047 -0.623 -0.141 -0.801 -0.236 c -0.306 -0.165 -0.588 -0.381 -0.794 -0.692 c -0.117 -0.176 -0.07 -0.09 -0.194 -0.255 c -0.224 -0.287 -0.135 -0.42 -0.2 -0.612 c -0.036 -0.113 -0.218 -0.236 -0.142 -0.604 c 0.018 -0.103 0.183 -0.598 -0.017 -0.512 c -0.201 0.079 0.153 0.047 -0.124 0.178 c -0.065 -0.178 -0.118 -0.443 -0.153 -0.664 c -0.071 -0.372 -0.159 -0.386 -0.201 -0.612 c -0.088 -0.523 0.136 -0.58 -0.112 -1.452 c -0.162 -0.576 -0.096 -1.941 -0.268 -2.641 c -0.028 -0.112 -0.061 -0.207 -0.102 -0.279 c -0.159 -0.263 -0.547 -0.386 -0.859 -0.598 c -0.017 -0.005 -0.029 -0.01 -0.035 -0.019 c -0.429 -0.301 -0.836 -1.483 -1.176 -1.926 c -0.159 -0.213 -0.26 -0.119 -0.33 -0.452 c -0.077 -0.307 0.041 -0.255 0.141 -0.51 c -0.523 -0.96 0.677 -0.947 0.429 -2.1 c -0.053 -0.213 -0.206 -0.509 -0.334 -0.603 c -0.248 0.108 -0.13 0.168 -0.26 0.376 c -0.2 -0.113 -0.399 -0.226 -0.594 -0.339 c -0.606 -0.585 -0.283 -0.16 -0.452 -0.542 c -0.366 -0.8 -0.712 -0.352 -1.147 -0.748 c -0.195 -0.165 -0.23 -0.425 -0.553 -0.376 c -0.488 0.065 -0.218 0.141 -0.723 -0.095 c -0.431 -0.203 -0.877 -0.438 -1.178 -0.711 c -0.016 -0.573 0.159 -0.517 -0.277 -1.045 c -0.281 1.276 -0.429 2.602 -0.429 3.962 c 0 0.21 0.005 0.42 0.012 0.629 c 0.001 0.045 0.002 0.09 0.005 0.135 c 0.008 0.2 0.018 0.398 0.032 0.597 c 0.001 0.008 0.001 0.016 0.002 0.024 c 0.016 0.208 0.035 0.415 0.058 0.622 c 0.004 0.041 0.008 0.083 0.013 0.125 c 0.022 0.185 0.046 0.369 0.072 0.552 c 0.004 0.022 0.006 0.043 0.01 0.065 c 0.03 0.203 0.065 0.404 0.101 0.605 l 0.022 0.112 c 0.034 0.176 0.07 0.352 0.108 0.527 c 0.007 0.029 0.012 0.058 0.019 0.087 c 0.045 0.198 0.093 0.396 0.144 0.592 c 0.008 0.029 0.016 0.059 0.024 0.088 c 0.047 0.173 0.095 0.346 0.147 0.517 c 0.01 0.032 0.018 0.064 0.028 0.096 c 0.06 0.194 0.121 0.387 0.188 0.579 c 0.006 0.018 0.013 0.037 0.019 0.057 c 0.061 0.174 0.124 0.348 0.19 0.52 c 0.012 0.032 0.024 0.065 0.036 0.096 c 0.073 0.191 0.15 0.38 0.23 0.568 c 0.001 0.002 0.002 0.005 0.004 0.008 c 0.077 0.182 0.159 0.362 0.242 0.54 c 0.014 0.03 0.028 0.061 0.042 0.091 c 0.173 0.366 0.357 0.725 0.553 1.078 c 0.014 0.026 0.03 0.053 0.045 0.079 c 0.198 0.355 0.409 0.701 0.63 1.04 c 0.014 0.022 0.029 0.043 0.043 0.065 c 0.225 0.343 0.461 0.676 0.708 1.002 c 0.012 0.016 0.024 0.031 0.036 0.047 c 0.121 0.159 0.244 0.316 0.37 0.47 c 0.004 0.004 0.006 0.008 0.01 0.012 c 0.134 0.162 0.268 0.322 0.407 0.48 c 0.008 0.008 0.016 0.017 0.023 0.025 c 0.134 0.152 0.268 0.299 0.405 0.446 c 0.007 0.007 0.014 0.016 0.02 0.023 c 0.287 0.304 0.586 0.599 0.894 0.884 c 0.008 0.008 0.018 0.017 0.026 0.025 c 0.308 0.284 0.624 0.557 0.95 0.819 c 0.011 0.008 0.02 0.017 0.031 0.025 c 0.326 0.261 0.662 0.511 1.006 0.749 c 0.011 0.008 0.022 0.016 0.032 0.023 c 0.345 0.238 0.699 0.465 1.061 0.681 c 0.01 0.006 0.02 0.012 0.03 0.018 c 0.363 0.215 0.735 0.419 1.115 0.609 c 0.008 0.004 0.016 0.008 0.024 0.012 c 2.471 1.235 5.256 1.931 8.206 1.931 c 10.148 0 18.374 -8.226 18.374 -18.374 C 55.796 18.121 55.701 17.057 55.518 16.022 z M 37.603 7.494 c 0.047 0.105 0.094 0.208 0.147 0.312 c 0.071 0.292 -0.159 0.052 0.071 0.401 c 0.182 0.217 0.358 0.433 0.535 0.65 c -0.112 0.325 -0.106 0.354 -0.423 0.381 c -0.224 0.019 -0.476 0.081 -0.647 0.071 c 0.065 -0.419 -0.059 -0.202 0.041 -0.443 c 0.112 -0.287 0.13 -0.071 0.229 -0.349 c -0.218 -0.325 -0.446 -0.103 -0.435 -0.763 C 37.327 7.57 37.297 7.599 37.603 7.494 z M 47.269 24.482 c -0.094 0.26 -0.177 0.575 -0.265 0.853 c -0.118 0.391 -0.395 1.639 -0.906 1.145 c -0.171 -0.161 -0.165 -0.702 -0.054 -0.919 c 0.313 -0.585 0.03 -0.447 0.136 -0.895 c 0.082 -0.358 0.364 -0.269 0.576 -0.462 c 0.194 -0.17 0.23 -0.471 0.488 -0.603 C 47.498 23.958 47.363 24.204 47.269 24.482 z M 55.493 15.878 c 0.008 0.048 0.017 0.096 0.025 0.144 c 0.001 0.001 0.001 0.002 0.002 0.004 C 55.512 15.977 55.502 15.927 55.493 15.878 z" stroke-linecap="round" />
</g>
</g>
</g>
<g transform="matrix(1 0 0 1 249.99999999999997 294.5)" style=""  ><path fill="#ff5757" opacity="1" d="M-25.23-4.85C-25.23-10.23-29.31-14.32-38.03-14.32L-51.01-14.32C-51.75-14.32-52.31-13.76-52.31-13.02L-52.31 10.36C-52.31 11.10-51.75 11.65-51.01 11.65L-45.45 11.65C-44.71 11.65-44.15 11.10-44.15 10.36L-44.15 4.61L-38.03 4.61C-29.31 4.61-25.23 0.52-25.23-4.85ZM-44.15-1.33L-44.15-8.38L-38.03-8.38C-35.24-8.38-33.76-6.90-33.76-4.85C-33.76-2.81-35.24-1.33-38.03-1.33Z"/><path fill="#ffffff" opacity="1" d="M-13.91-6.71C-13.91-7.82-12.80-8.94-9.46-8.94C-6.68-8.94-5.53-7.82-5.19-7.27C-4.67-6.34-4.08-5.78-2.97-5.78L1.67-5.78C2.60-5.78 3.15-6.34 3.15-7.27C3.15-10.98-0.93-15.06-9.46-15.06C-18.55-15.06-22.45-11.16-22.45-6.71C-22.45 3.68-4.45 0.15-4.45 3.86C-4.45 4.98-5.75 6.28-9.46 6.28C-13.17 6.28-14.28 5.16-14.84 4.23C-15.36 3.34-15.95 2.75-17.07 2.75L-21.70 2.75C-22.63 2.75-23.19 3.31-23.19 4.23C-23.19 8.32-19.11 12.40-9.46 12.40C0 12.40 4.08 8.32 4.08 3.86C4.08-6.52-13.91-3.00-13.91-6.71Z"/><path fill="#ff5757" opacity="1" d="M24.30-13.02C24.30-13.76 23.74-14.32 23.00-14.32L7.79-14.32C7.05-14.32 6.49-13.76 6.49-13.02L6.49-9.31C6.49-8.56 7.05-8.01 7.79-8.01L11.32-8.01L11.32 5.35L7.79 5.35C7.05 5.35 6.49 5.90 6.49 6.65L6.49 10.36C6.49 11.10 7.05 11.65 7.79 11.65L23.00 11.65C23.74 11.65 24.30 11.10 24.30 10.36L24.30 6.65C24.30 5.90 23.74 5.35 23.00 5.35L19.48 5.35L19.48-8.01L23.00-8.01C23.74-8.01 24.30-8.56 24.30-9.31Z"/><path fill="#ffffff" opacity="1" d="M35.99-6.71C35.99-7.82 37.10-8.94 40.44-8.94C43.22-8.94 44.37-7.82 44.71-7.27C45.22-6.34 45.82-5.78 46.93-5.78L51.57-5.78C52.50-5.78 53.05-6.34 53.05-7.27C53.05-10.98 48.97-15.06 40.44-15.06C31.35-15.06 27.45-11.16 27.45-6.71C27.45 3.68 45.45 0.15 45.45 3.86C45.45 4.98 44.15 6.28 40.44 6.28C36.73 6.28 35.62 5.16 35.06 4.23C34.54 3.34 33.95 2.75 32.83 2.75L28.20 2.75C27.27 2.75 26.71 3.31 26.71 4.23C26.71 8.32 30.79 12.40 40.44 12.40C49.90 12.40 53.98 8.32 53.98 3.86C53.98-6.52 35.99-3.00 35.99-6.71Z"/></g></svg>