<svg width="19" height="23" viewBox="0 0 19 23" fill="none" xmlns="http://www.w3.org/2000/svg">
<path d="M10.9375 5.873V0H1.17188C0.522461 0 0 0.462067 0 1.03641V21.0737C0 21.6481 0.522461 22.1101 1.17188 22.1101H17.5781C18.2275 22.1101 18.75 21.6481 18.75 21.0737V6.90941H12.1094C11.4648 6.90941 10.9375 6.44303 10.9375 5.873ZM13.7256 11.0551H14.8926C15.2686 11.0551 15.5469 11.3617 15.4639 11.6899L13.6084 18.9447C13.5498 19.1823 13.3105 19.3464 13.0371 19.3464H11.1816C10.9131 19.3464 10.6787 19.1823 10.6152 18.9534C9.35547 14.4839 9.59961 15.4469 9.36523 14.1816H9.34082C9.28711 14.7991 9.22363 14.933 8.09082 18.9534C8.02734 19.1823 7.79297 19.3464 7.52441 19.3464H5.71289C5.43945 19.3464 5.2002 19.1779 5.1416 18.9404L3.2959 11.6855C3.21289 11.3617 3.49121 11.0551 3.86719 11.0551H5.06348C5.3418 11.0551 5.58594 11.2278 5.63965 11.4739C6.40137 14.8423 6.62109 16.2026 6.66504 16.751C6.74316 16.3105 7.02148 15.3389 8.10059 11.4524C8.16406 11.2192 8.39844 11.0594 8.67188 11.0594H10.0928C10.3662 11.0594 10.6006 11.2235 10.6641 11.4567C11.8359 15.7923 12.0703 16.8115 12.1094 17.0447C12.0996 16.561 11.9824 16.276 13.1641 11.4653C13.2129 11.2235 13.4521 11.0551 13.7256 11.0551ZM18.75 5.26411V5.52753H12.5V0H12.7979C13.1104 0 13.4082 0.10796 13.6279 0.302287L18.4082 4.5343C18.6279 4.72863 18.75 4.99205 18.75 5.26411Z" fill="#F22835"/>
</svg>
