<svg width="19" height="23" viewBox="0 0 19 23" fill="none" xmlns="http://www.w3.org/2000/svg">
<path d="M10.9375 5.873V0H1.17188C0.522461 0 0 0.462067 0 1.03641V21.0737C0 21.6481 0.522461 22.1101 1.17188 22.1101H17.5781C18.2275 22.1101 18.75 21.6481 18.75 21.0737V6.90941H12.1094C11.4648 6.90941 10.9375 6.44303 10.9375 5.873ZM3.125 3.10924C3.125 2.91836 3.2998 2.76377 3.51562 2.76377H7.42188C7.6377 2.76377 7.8125 2.91836 7.8125 3.10924V3.80018C7.8125 3.99105 7.6377 4.14565 7.42188 4.14565H3.51562C3.2998 4.14565 3.125 3.99105 3.125 3.80018V3.10924ZM3.125 5.873C3.125 5.68213 3.2998 5.52753 3.51562 5.52753H7.42188C7.6377 5.52753 7.8125 5.68213 7.8125 5.873V6.56394C7.8125 6.75482 7.6377 6.90941 7.42188 6.90941H3.51562C3.2998 6.90941 3.125 6.75482 3.125 6.56394V5.873ZM12.5396 16.5826H14.8438C15.2754 16.5826 15.625 16.8918 15.625 17.2735C15.625 17.6553 15.2754 17.9645 14.8438 17.9645H12.5396C11.7363 17.9645 11.0127 17.5698 10.6528 16.9341C10.5088 16.6785 10.2578 16.6526 10.1562 16.6526C10.0547 16.6526 9.80371 16.678 9.66699 16.9199L9.29248 17.5823C9.22763 17.6971 9.1279 17.7936 9.00448 17.861C8.88105 17.9284 8.73882 17.9641 8.59375 17.964C8.5752 17.964 8.55713 17.9632 8.53809 17.9619C8.22314 17.9425 7.95215 17.7568 7.85303 17.4916L7.03125 15.3126L6.51318 16.6893C6.22559 17.4519 5.42041 17.9645 4.51123 17.9645H3.90625C3.47461 17.9645 3.125 17.6553 3.125 17.2735C3.125 16.8918 3.47461 16.5826 3.90625 16.5826H4.51123C4.74707 16.5826 4.95605 16.4496 5.03076 16.2518L5.91895 13.8922C6.08008 13.4686 6.52637 13.1836 7.03125 13.1836C7.53613 13.1836 7.98242 13.4682 8.14307 13.8922L8.8208 15.6904C9.78613 14.9913 11.46 15.2715 12.0435 16.3019C12.1421 16.4772 12.3345 16.5826 12.5396 16.5826ZM18.4082 4.5343L13.6279 0.302287C13.4082 0.10796 13.1104 0 12.7979 0H12.5V5.52753H18.75V5.26411C18.75 4.99205 18.6279 4.72863 18.4082 4.5343Z" fill="#E61C1C"/>
</svg>
