<svg width="30" height="22" viewBox="0 0 30 22" fill="none" xmlns="http://www.w3.org/2000/svg">
<path d="M29.25 14.5927H28.5V10.1112C28.5 9.58474 28.2609 9.07897 27.8391 8.70586L23.1562 4.56436C22.7344 4.19125 22.1625 3.97982 21.5672 3.97982H19.5V1.98991C19.5 0.891314 18.4922 0 17.25 0H2.25C1.00781 0 0 0.891314 0 1.98991V15.256C0 16.3546 1.00781 17.2459 2.25 17.2459H3C3 19.4431 5.01562 21.2257 7.5 21.2257C9.98438 21.2257 12 19.4431 12 17.2459H18C18 19.4431 20.0156 21.2257 22.5 21.2257C24.9844 21.2257 27 19.4431 27 17.2459H29.25C29.6625 17.2459 30 16.9474 30 16.5826V15.256C30 14.8912 29.6625 14.5927 29.25 14.5927ZM7.5 19.2358C6.25781 19.2358 5.25 18.3445 5.25 17.2459C5.25 16.1473 6.25781 15.256 7.5 15.256C8.74219 15.256 9.75 16.1473 9.75 17.2459C9.75 18.3445 8.74219 19.2358 7.5 19.2358ZM14.25 8.9546C14.25 9.13701 14.0813 9.28625 13.875 9.28625H11.25V11.6078C11.25 11.7902 11.0813 11.9395 10.875 11.9395H8.625C8.41875 11.9395 8.25 11.7902 8.25 11.6078V9.28625H5.625C5.41875 9.28625 5.25 9.13701 5.25 8.9546V6.96469C5.25 6.78228 5.41875 6.63304 5.625 6.63304H8.25V4.31147C8.25 4.12907 8.41875 3.97982 8.625 3.97982H10.875C11.0813 3.97982 11.25 4.12907 11.25 4.31147V6.63304H13.875C14.0813 6.63304 14.25 6.78228 14.25 6.96469V8.9546ZM22.5 19.2358C21.2578 19.2358 20.25 18.3445 20.25 17.2459C20.25 16.1473 21.2578 15.256 22.5 15.256C23.7422 15.256 24.75 16.1473 24.75 17.2459C24.75 18.3445 23.7422 19.2358 22.5 19.2358ZM26.25 10.6129H19.5V5.96973H21.5672L26.25 10.1112V10.6129Z" fill="#F22835"/>
</svg>
