<svg width="30" height="30" viewBox="0 0 30 30" fill="none" xmlns="http://www.w3.org/2000/svg">
<g clip-path="url(#clip0_8_104)">
<path d="M15 0C6.71484 0 0 6.71484 0 15C0 23.2852 6.71484 30 15 30C23.2852 30 30 23.2852 30 15C30 6.71484 23.2852 0 15 0ZM21.5625 22.0312C21.5625 22.2891 21.3516 22.5 21.0938 22.5H18.2812C18.0234 22.5 17.8125 22.2891 17.8125 22.0312V16.875H12.1875V22.0312C12.1875 22.2891 11.9766 22.5 11.7188 22.5H8.90625C8.64844 22.5 8.4375 22.2891 8.4375 22.0312V7.96875C8.4375 7.71094 8.64844 7.5 8.90625 7.5H11.7188C11.9766 7.5 12.1875 7.71094 12.1875 7.96875V13.125H17.8125V7.96875C17.8125 7.71094 18.0234 7.5 18.2812 7.5H21.0938C21.3516 7.5 21.5625 7.71094 21.5625 7.96875V22.0312Z" fill="#FC323E"/>
</g>
<defs>
<clipPath id="clip0_8_104">
<rect width="30" height="30" fill="white"/>
</clipPath>
</defs>
</svg>
